<svg width="68" height="63" viewBox="0 0 68 63" fill="none" xmlns="http://www.w3.org/2000/svg">
<circle cx="30.4346" cy="30.4346" r="30" transform="rotate(0.83609 30.4346 30.4346)" fill="#6AB6EE"/>
<circle cx="37.4346" cy="32.4346" r="30" transform="rotate(0.83609 37.4346 32.4346)" fill="white"/>
<circle cx="37" cy="22" r="9.5" fill="#6AB6EE" stroke="#6AB6EE"/>
<path d="M40.1111 19.813H39.2223C39.2223 18.7463 38.2445 17.9082 37 17.9082C35.7556 17.9082 34.7778 18.7463 34.7778 19.813H33.8889C33.4 19.813 33 20.1558 33 20.5749V25.1463C33 25.5653 33.4 25.9082 33.8889 25.9082H40.1111C40.6 25.9082 41 25.5653 41 25.1463V20.5749C41 20.1558 40.6 19.813 40.1111 19.813ZM37 18.6701C37.7556 18.6701 38.3334 19.1653 38.3334 19.813H35.6667C35.6667 19.1653 36.2445 18.6701 37 18.6701ZM40.1111 25.1463H33.8889V20.5749H40.1111V25.1463ZM37 22.0987C36.2445 22.0987 35.6667 21.6034 35.6667 20.9558H34.7778C34.7778 22.0225 35.7556 22.8606 37 22.8606C38.2445 22.8606 39.2223 22.0225 39.2223 20.9558H38.3334C38.3334 21.6034 37.7556 22.0987 37 22.0987Z" fill="white"/>
<path d="M21.3644 45.9688V43.0487H23.0444V43.3767H21.7204V44.2807H22.9044V44.6047H21.7204V45.6407H23.0444V45.9688H21.3644ZM24.3708 46.0088C24.1388 46.0088 23.9562 45.9501 23.8228 45.8327C23.6895 45.7127 23.6228 45.5514 23.6228 45.3487C23.6228 45.1434 23.6895 44.9821 23.8228 44.8647C23.9562 44.7474 24.1362 44.6887 24.3628 44.6887H25.0428V44.4687C25.0428 44.3327 25.0015 44.2287 24.9188 44.1567C24.8388 44.0821 24.7242 44.0447 24.5748 44.0447C24.4442 44.0447 24.3348 44.0727 24.2468 44.1287C24.1588 44.1821 24.1082 44.2554 24.0948 44.3487H23.7348C23.7588 44.1594 23.8482 44.0087 24.0028 43.8967C24.1575 43.7847 24.3508 43.7287 24.5828 43.7287C24.8362 43.7287 25.0362 43.7941 25.1828 43.9247C25.3295 44.0554 25.4028 44.2327 25.4028 44.4567V45.9688H25.0508V45.5487H24.9908L25.0508 45.4887C25.0508 45.6487 24.9882 45.7754 24.8628 45.8687C24.7402 45.9621 24.5762 46.0088 24.3708 46.0088ZM24.4588 45.7247C24.6295 45.7247 24.7695 45.6821 24.8788 45.5967C24.9882 45.5114 25.0428 45.4021 25.0428 45.2687V44.9567H24.3708C24.2508 44.9567 24.1562 44.9901 24.0868 45.0567C24.0175 45.1234 23.9828 45.2141 23.9828 45.3287C23.9828 45.4514 24.0242 45.5487 24.1068 45.6207C24.1922 45.6901 24.3095 45.7247 24.4588 45.7247ZM26.8933 46.0008C26.7439 46.0008 26.6133 45.9781 26.5013 45.9327C26.3919 45.8847 26.3039 45.8181 26.2373 45.7327C26.1733 45.6474 26.1346 45.5461 26.1213 45.4287H26.4813C26.4973 45.5061 26.5399 45.5674 26.6093 45.6127C26.6813 45.6581 26.7759 45.6807 26.8933 45.6807H27.0613C27.2026 45.6807 27.3079 45.6527 27.3773 45.5967C27.4466 45.5381 27.4813 45.4607 27.4813 45.3647C27.4813 45.2714 27.4493 45.1981 27.3853 45.1447C27.3239 45.0887 27.2319 45.0514 27.1093 45.0327L26.8133 44.9847C26.5973 44.9474 26.4359 44.8807 26.3293 44.7847C26.2253 44.6861 26.1733 44.5434 26.1733 44.3567C26.1733 44.1594 26.2359 44.0074 26.3613 43.9007C26.4866 43.7914 26.6746 43.7367 26.9253 43.7367H27.0773C27.2879 43.7367 27.4573 43.7861 27.5853 43.8847C27.7133 43.9834 27.7906 44.1167 27.8173 44.2847H27.4573C27.4413 44.2154 27.4013 44.1607 27.3373 44.1207C27.2733 44.0781 27.1866 44.0567 27.0773 44.0567H26.9253C26.7893 44.0567 26.6893 44.0821 26.6253 44.1327C26.5639 44.1834 26.5333 44.2594 26.5333 44.3607C26.5333 44.4514 26.5599 44.5181 26.6133 44.5607C26.6666 44.6034 26.7506 44.6341 26.8653 44.6527L27.1613 44.7007C27.3986 44.7381 27.5706 44.8074 27.6773 44.9087C27.7866 45.0101 27.8413 45.1567 27.8413 45.3487C27.8413 45.5514 27.7759 45.7114 27.6453 45.8287C27.5173 45.9434 27.3226 46.0008 27.0613 46.0008H26.8933ZM28.8717 46.6888L29.1957 45.8327L28.3797 43.7687H28.7797L29.2917 45.1287C29.3104 45.1741 29.3277 45.2287 29.3437 45.2927C29.3597 45.3541 29.373 45.4061 29.3837 45.4487C29.3944 45.4061 29.4077 45.3541 29.4237 45.2927C29.4397 45.2287 29.4557 45.1741 29.4717 45.1287L29.9517 43.7687H30.3397L29.2557 46.6888H28.8717ZM34.0886 46.0008C33.9392 46.0008 33.8086 45.9781 33.6966 45.9327C33.5872 45.8847 33.4992 45.8181 33.4326 45.7327C33.3686 45.6474 33.3299 45.5461 33.3166 45.4287H33.6766C33.6926 45.5061 33.7352 45.5674 33.8046 45.6127C33.8766 45.6581 33.9712 45.6807 34.0886 45.6807H34.2566C34.3979 45.6807 34.5032 45.6527 34.5726 45.5967C34.6419 45.5381 34.6766 45.4607 34.6766 45.3647C34.6766 45.2714 34.6446 45.1981 34.5806 45.1447C34.5192 45.0887 34.4272 45.0514 34.3046 45.0327L34.0086 44.9847C33.7926 44.9474 33.6312 44.8807 33.5246 44.7847C33.4206 44.6861 33.3686 44.5434 33.3686 44.3567C33.3686 44.1594 33.4312 44.0074 33.5566 43.9007C33.6819 43.7914 33.8699 43.7367 34.1206 43.7367H34.2726C34.4832 43.7367 34.6526 43.7861 34.7806 43.8847C34.9086 43.9834 34.9859 44.1167 35.0126 44.2847H34.6526C34.6366 44.2154 34.5966 44.1607 34.5326 44.1207C34.4686 44.0781 34.3819 44.0567 34.2726 44.0567H34.1206C33.9846 44.0567 33.8846 44.0821 33.8206 44.1327C33.7592 44.1834 33.7286 44.2594 33.7286 44.3607C33.7286 44.4514 33.7552 44.5181 33.8086 44.5607C33.8619 44.6034 33.9459 44.6341 34.0606 44.6527L34.3566 44.7007C34.5939 44.7381 34.7659 44.8074 34.8726 44.9087C34.9819 45.0101 35.0366 45.1567 35.0366 45.3487C35.0366 45.5514 34.9712 45.7114 34.8406 45.8287C34.7126 45.9434 34.5179 46.0008 34.2566 46.0008H34.0886ZM36.555 46.0008C36.379 46.0008 36.227 45.9674 36.099 45.9007C35.971 45.8341 35.871 45.7381 35.799 45.6127C35.7297 45.4847 35.695 45.3341 35.695 45.1607V44.5767C35.695 44.4007 35.7297 44.2501 35.799 44.1247C35.871 43.9994 35.971 43.9034 36.099 43.8367C36.227 43.7701 36.379 43.7367 36.555 43.7367C36.731 43.7367 36.883 43.7701 37.011 43.8367C37.139 43.9034 37.2377 43.9994 37.307 44.1247C37.379 44.2501 37.415 44.3994 37.415 44.5727V45.1607C37.415 45.3341 37.379 45.4847 37.307 45.6127C37.2377 45.7381 37.139 45.8341 37.011 45.9007C36.883 45.9674 36.731 46.0008 36.555 46.0008ZM36.555 45.6807C36.7123 45.6807 36.835 45.6367 36.923 45.5487C37.011 45.4607 37.055 45.3314 37.055 45.1607V44.5767C37.055 44.4061 37.011 44.2767 36.923 44.1887C36.835 44.1007 36.7123 44.0567 36.555 44.0567C36.4003 44.0567 36.2777 44.1007 36.187 44.1887C36.099 44.2767 36.055 44.4061 36.055 44.5767V45.1607C36.055 45.3314 36.099 45.4607 36.187 45.5487C36.2777 45.6367 36.4003 45.6807 36.555 45.6807ZM39.2534 45.9688C39.1254 45.9688 39.0134 45.9434 38.9174 45.8927C38.8214 45.8421 38.7468 45.7701 38.6934 45.6767C38.6401 45.5834 38.6134 45.4741 38.6134 45.3487V43.3767H37.8734V43.0487H38.9734V45.3487C38.9734 45.4394 38.9988 45.5114 39.0494 45.5647C39.1001 45.6154 39.1681 45.6407 39.2534 45.6407H39.9534V45.9688H39.2534ZM41.3479 46.0088C41.0946 46.0088 40.8919 45.9341 40.7399 45.7847C40.5879 45.6327 40.5119 45.4274 40.5119 45.1687V43.7687H40.8719V45.1687C40.8719 45.3341 40.9146 45.4634 40.9999 45.5567C41.0852 45.6474 41.2012 45.6927 41.3479 45.6927C41.4972 45.6927 41.6146 45.6474 41.6999 45.5567C41.7879 45.4634 41.8319 45.3341 41.8319 45.1687V43.7687H42.1919V45.1687C42.1919 45.4274 42.1146 45.6327 41.9599 45.7847C41.8052 45.9341 41.6012 46.0088 41.3479 46.0088ZM43.9903 45.9688C43.801 45.9688 43.653 45.9181 43.5463 45.8167C43.4423 45.7154 43.3903 45.5727 43.3903 45.3887V44.0967H42.7703V43.7687H43.3903V43.1487H43.7503V43.7687H44.6303V44.0967H43.7503V45.3887C43.7503 45.5567 43.8303 45.6407 43.9903 45.6407H44.5903V45.9688H43.9903ZM45.2888 45.9688V45.6407H46.0688V44.0967H45.3888V43.7687H46.4288V45.6407H47.1688V45.9688H45.2888ZM46.2088 43.3727C46.1208 43.3727 46.0514 43.3501 46.0008 43.3047C45.9501 43.2594 45.9248 43.1981 45.9248 43.1207C45.9248 43.0407 45.9501 42.9781 46.0008 42.9327C46.0514 42.8847 46.1208 42.8607 46.2088 42.8607C46.2968 42.8607 46.3661 42.8847 46.4168 42.9327C46.4674 42.9781 46.4928 43.0407 46.4928 43.1207C46.4928 43.1981 46.4674 43.2594 46.4168 43.3047C46.3661 43.3501 46.2968 43.3727 46.2088 43.3727ZM48.5472 46.0008C48.3712 46.0008 48.2192 45.9674 48.0912 45.9007C47.9632 45.8341 47.8632 45.7381 47.7912 45.6127C47.7219 45.4847 47.6872 45.3341 47.6872 45.1607V44.5767C47.6872 44.4007 47.7219 44.2501 47.7912 44.1247C47.8632 43.9994 47.9632 43.9034 48.0912 43.8367C48.2192 43.7701 48.3712 43.7367 48.5472 43.7367C48.7232 43.7367 48.8752 43.7701 49.0032 43.8367C49.1312 43.9034 49.2299 43.9994 49.2992 44.1247C49.3712 44.2501 49.4072 44.3994 49.4072 44.5727V45.1607C49.4072 45.3341 49.3712 45.4847 49.2992 45.6127C49.2299 45.7381 49.1312 45.8341 49.0032 45.9007C48.8752 45.9674 48.7232 46.0008 48.5472 46.0008ZM48.5472 45.6807C48.7045 45.6807 48.8272 45.6367 48.9152 45.5487C49.0032 45.4607 49.0472 45.3314 49.0472 45.1607V44.5767C49.0472 44.4061 49.0032 44.2767 48.9152 44.1887C48.8272 44.1007 48.7045 44.0567 48.5472 44.0567C48.3925 44.0567 48.2699 44.1007 48.1792 44.1887C48.0912 44.2767 48.0472 44.4061 48.0472 44.5767V45.1607C48.0472 45.3314 48.0912 45.4607 48.1792 45.5487C48.2699 45.6367 48.3925 45.6807 48.5472 45.6807ZM50.1136 45.9688V43.7687H50.4736V44.1887H50.5496L50.4736 44.2727C50.4736 44.0994 50.5256 43.9661 50.6296 43.8727C50.7336 43.7767 50.8776 43.7287 51.0616 43.7287C51.283 43.7287 51.459 43.7967 51.5896 43.9327C51.7203 44.0687 51.7856 44.2541 51.7856 44.4887V45.9688H51.4256V44.5287C51.4256 44.3714 51.383 44.2514 51.2976 44.1687C51.215 44.0834 51.1016 44.0407 50.9576 44.0407C50.8083 44.0407 50.6896 44.0861 50.6016 44.1767C50.5163 44.2674 50.4736 44.3981 50.4736 44.5687V45.9688H50.1136Z" fill="black"/>
<path d="M14.76 39V33.152H18.2V33.808H15.464V35.752H17.992V36.408H15.48V39H14.76ZM20.9729 39.08C20.5089 39.08 20.1436 38.9627 19.8769 38.728C19.6102 38.488 19.4769 38.1653 19.4769 37.76C19.4769 37.3493 19.6102 37.0267 19.8769 36.792C20.1436 36.5573 20.5036 36.44 20.9569 36.44H22.3169V36C22.3169 35.728 22.2342 35.52 22.0689 35.376C21.9089 35.2267 21.6796 35.152 21.3809 35.152C21.1196 35.152 20.9009 35.208 20.7249 35.32C20.5489 35.4267 20.4476 35.5733 20.4209 35.76H19.7009C19.7489 35.3813 19.9276 35.08 20.2369 34.856C20.5462 34.632 20.9329 34.52 21.3969 34.52C21.9036 34.52 22.3036 34.6507 22.5969 34.912C22.8902 35.1733 23.0369 35.528 23.0369 35.976V39H22.3329V38.16H22.2129L22.3329 38.04C22.3329 38.36 22.2076 38.6133 21.9569 38.8C21.7116 38.9867 21.3836 39.08 20.9729 39.08ZM21.1489 38.512C21.4902 38.512 21.7702 38.4267 21.9889 38.256C22.2076 38.0853 22.3169 37.8667 22.3169 37.6V36.976H20.9729C20.7329 36.976 20.5436 37.0427 20.4049 37.176C20.2662 37.3093 20.1969 37.4907 20.1969 37.72C20.1969 37.9653 20.2796 38.16 20.4449 38.304C20.6156 38.4427 20.8502 38.512 21.1489 38.512ZM21.3969 33.88C21.0129 33.88 20.7036 33.7733 20.4689 33.56C20.2342 33.3467 20.1169 33.0667 20.1169 32.72H20.6849C20.6849 32.928 20.7489 33.096 20.8769 33.224C21.0049 33.352 21.1756 33.416 21.3889 33.416C21.6076 33.416 21.7809 33.352 21.9089 33.224C22.0422 33.096 22.1089 32.928 22.1089 32.72H22.6769C22.6769 33.0667 22.5596 33.3467 22.3249 33.56C22.0902 33.7733 21.7809 33.88 21.3969 33.88ZM24.8018 39V34.6H25.5058V35.44H25.6738L25.4418 35.96C25.4418 35.4853 25.5431 35.128 25.7458 34.888C25.9538 34.6427 26.2604 34.52 26.6658 34.52C27.1298 34.52 27.4978 34.6667 27.7698 34.96C28.0471 35.248 28.1858 35.64 28.1858 36.136V36.4H27.4658V36.2C27.4658 35.8533 27.3804 35.5893 27.2098 35.408C27.0444 35.2213 26.8071 35.128 26.4978 35.128C26.1938 35.128 25.9538 35.2213 25.7778 35.408C25.6071 35.5947 25.5218 35.8587 25.5218 36.2V39H24.8018ZM30.8867 39.08C30.4227 39.08 30.0573 38.9627 29.7907 38.728C29.524 38.488 29.3907 38.1653 29.3907 37.76C29.3907 37.3493 29.524 37.0267 29.7907 36.792C30.0573 36.5573 30.4173 36.44 30.8707 36.44H32.2307V36C32.2307 35.728 32.148 35.52 31.9827 35.376C31.8227 35.2267 31.5933 35.152 31.2947 35.152C31.0333 35.152 30.8147 35.208 30.6387 35.32C30.4627 35.4267 30.3613 35.5733 30.3347 35.76H29.6147C29.6627 35.3813 29.8413 35.08 30.1507 34.856C30.46 34.632 30.8467 34.52 31.3107 34.52C31.8173 34.52 32.2173 34.6507 32.5107 34.912C32.804 35.1733 32.9507 35.528 32.9507 35.976V39H32.2467V38.16H32.1267L32.2467 38.04C32.2467 38.36 32.1213 38.6133 31.8707 38.8C31.6253 38.9867 31.2973 39.08 30.8867 39.08ZM31.0627 38.512C31.404 38.512 31.684 38.4267 31.9027 38.256C32.1213 38.0853 32.2307 37.8667 32.2307 37.6V36.976H30.8867C30.6467 36.976 30.4573 37.0427 30.3187 37.176C30.18 37.3093 30.1107 37.4907 30.1107 37.72C30.1107 37.9653 30.1933 38.16 30.3587 38.304C30.5293 38.4427 30.764 38.512 31.0627 38.512ZM31.3107 33.88C30.9267 33.88 30.6173 33.7733 30.3827 33.56C30.148 33.3467 30.0307 33.0667 30.0307 32.72H30.5987C30.5987 32.928 30.6627 33.096 30.7907 33.224C30.9187 33.352 31.0893 33.416 31.3027 33.416C31.5213 33.416 31.6947 33.352 31.8227 33.224C31.956 33.096 32.0227 32.928 32.0227 32.72H32.5907C32.5907 33.0667 32.4733 33.3467 32.2387 33.56C32.004 33.7733 31.6947 33.88 31.3107 33.88Z" fill="#1E1E1E"/>
<path d="M41.7492 33.3984L41.468 38.6953L39.4211 38.8828L38.3274 36.0469L38.1555 38.9375H36.3977L36.5383 33.3984L38.4914 33.3047L39.843 36.1172L39.9055 33.4609L41.7492 33.3984ZM46.8858 33.5C46.7686 34.4167 46.6684 35.3294 46.585 36.2383C46.5017 37.1445 46.4223 38.0573 46.3467 38.9766L44.7452 39.0938L44.8155 38.4922C44.7634 38.5521 44.7022 38.6042 44.6319 38.6484C44.5642 38.6927 44.4913 38.7292 44.4132 38.7578C44.335 38.7839 44.2543 38.8034 44.171 38.8164C44.0876 38.8268 44.0082 38.8307 43.9327 38.8281C43.7556 38.8255 43.5889 38.7917 43.4327 38.7266C43.2764 38.6589 43.1332 38.5703 43.003 38.4609C42.8728 38.349 42.7556 38.2201 42.6514 38.0742C42.5473 37.9258 42.4587 37.7708 42.3858 37.6094C42.3155 37.4453 42.2608 37.2786 42.2217 37.1094C42.1853 36.9401 42.1671 36.776 42.1671 36.6172C42.1671 36.3828 42.171 36.1406 42.1788 35.8906C42.1892 35.638 42.2061 35.3854 42.2296 35.1328C42.253 34.8802 42.2829 34.6302 42.3194 34.3828C42.3585 34.1354 42.4066 33.8984 42.4639 33.6719C42.7816 33.6875 43.1007 33.7018 43.421 33.7148C43.7413 33.7279 44.0603 33.7318 44.378 33.7266C44.3181 33.9531 44.2582 34.181 44.1983 34.4102C44.141 34.6367 44.0889 34.8659 44.0421 35.0977C43.9952 35.3268 43.9574 35.5573 43.9288 35.7891C43.9001 36.0208 43.8858 36.2552 43.8858 36.4922C43.8858 36.5469 43.8884 36.625 43.8936 36.7266C43.8988 36.8281 43.9119 36.9284 43.9327 37.0273C43.9561 37.1263 43.99 37.2135 44.0342 37.2891C44.0811 37.362 44.1462 37.3984 44.2296 37.3984C44.3285 37.3984 44.4171 37.3568 44.4952 37.2734C44.5733 37.1875 44.6423 37.0729 44.7022 36.9297C44.7621 36.7865 44.8129 36.6211 44.8546 36.4336C44.8988 36.2461 44.9353 36.0508 44.9639 35.8477C44.9952 35.6419 45.0199 35.4349 45.0382 35.2266C45.0564 35.0182 45.0694 34.8229 45.0772 34.6406C45.0876 34.4557 45.0941 34.2904 45.0967 34.1445C45.102 33.9987 45.1046 33.8854 45.1046 33.8047C45.1046 33.7526 45.1033 33.7018 45.1007 33.6523C45.0981 33.6029 45.0941 33.5521 45.0889 33.5C45.2582 33.5052 45.4262 33.5091 45.5928 33.5117C45.7595 33.5143 45.9275 33.5156 46.0967 33.5156C46.227 33.5156 46.3572 33.5156 46.4874 33.5156C46.6202 33.513 46.753 33.5078 46.8858 33.5ZM54.1083 36.3516C54.1083 36.724 54.0966 37.0951 54.0732 37.4648C54.0497 37.8346 54.0224 38.2057 53.9911 38.5781L51.9833 38.6719C52.0432 38.2188 52.0966 37.7656 52.1435 37.3125C52.1929 36.8568 52.2177 36.401 52.2177 35.9453C52.2177 35.9167 52.2164 35.8672 52.2138 35.7969C52.2112 35.724 52.206 35.6419 52.1982 35.5508C52.1929 35.4596 52.1838 35.3659 52.1708 35.2695C52.1604 35.1706 52.1448 35.0807 52.1239 35C52.1057 34.9167 52.0823 34.849 52.0536 34.7969C52.025 34.7448 51.9911 34.7188 51.9521 34.7188C51.8609 34.7188 51.7893 34.7539 51.7372 34.8242C51.6851 34.8919 51.6461 34.974 51.62 35.0703C51.5966 35.1667 51.5823 35.2656 51.5771 35.3672C51.5719 35.4661 51.5692 35.5469 51.5692 35.6094C51.5692 35.7188 51.5719 35.8281 51.5771 35.9375C51.5823 36.0469 51.5849 36.1589 51.5849 36.2734C51.5849 36.6771 51.5745 37.0794 51.5536 37.4805C51.5354 37.8815 51.512 38.2839 51.4833 38.6875L49.6317 38.7578C49.6916 38.3047 49.7437 37.8529 49.788 37.4023C49.8349 36.9492 49.8583 36.4948 49.8583 36.0391C49.8583 36.0104 49.857 35.9583 49.8544 35.8828C49.8518 35.8073 49.8466 35.7227 49.8388 35.6289C49.8336 35.5352 49.8245 35.4375 49.8114 35.3359C49.7984 35.2344 49.7815 35.1419 49.7607 35.0586C49.7424 34.9727 49.719 34.9023 49.6903 34.8477C49.6617 34.793 49.6265 34.7656 49.5849 34.7656C49.5198 34.7656 49.4651 34.7917 49.4208 34.8438C49.3765 34.8932 49.3401 34.9583 49.3114 35.0391C49.2854 35.1198 49.2646 35.2096 49.2489 35.3086C49.2359 35.4049 49.2255 35.5 49.2177 35.5938C49.2125 35.6875 49.2086 35.7747 49.206 35.8555C49.206 35.9336 49.2047 35.9922 49.2021 36.0312L49.1161 38.8828H47.1474C47.189 38.4427 47.2307 38.0013 47.2724 37.5586C47.3166 37.1159 47.3544 36.6745 47.3857 36.2344C47.4195 35.7917 47.4469 35.349 47.4677 34.9062C47.4885 34.4635 47.4989 34.0208 47.4989 33.5781L49.3583 33.5L49.3505 33.9531C49.4078 33.8802 49.4729 33.8073 49.5458 33.7344C49.6187 33.6589 49.6956 33.5924 49.7763 33.5352C49.8596 33.4753 49.9469 33.4271 50.038 33.3906C50.1317 33.3542 50.2281 33.3359 50.3271 33.3359C50.4547 33.3359 50.5692 33.3464 50.6708 33.3672C50.7724 33.3854 50.8635 33.418 50.9442 33.4648C51.0276 33.5117 51.1005 33.5768 51.163 33.6602C51.2255 33.7409 51.2802 33.8438 51.3271 33.9688C51.4104 33.8776 51.4937 33.793 51.5771 33.7148C51.663 33.6367 51.7528 33.5703 51.8466 33.5156C51.9403 33.4583 52.0419 33.4141 52.1513 33.3828C52.2607 33.3516 52.3817 33.3359 52.5146 33.3359C52.7672 33.3359 52.982 33.3854 53.1591 33.4844C53.3362 33.5807 53.4833 33.7096 53.6005 33.8711C53.7203 34.0326 53.8127 34.2174 53.8778 34.4258C53.9456 34.6341 53.9963 34.8503 54.0302 35.0742C54.064 35.2982 54.0849 35.5208 54.0927 35.7422C54.1031 35.9635 54.1083 36.1667 54.1083 36.3516ZM58.9871 35.8438C58.9871 36.0703 58.9714 36.2969 58.9402 36.5234C58.4949 36.5521 58.0522 36.599 57.6121 36.6641C57.172 36.7266 56.7319 36.7891 56.2917 36.8516C56.3595 37.0391 56.4649 37.1888 56.6082 37.3008C56.754 37.4128 56.9272 37.4688 57.1277 37.4688C57.2319 37.4688 57.3451 37.4492 57.4675 37.4102C57.5925 37.3711 57.7162 37.3229 57.8386 37.2656C57.961 37.2057 58.0782 37.1419 58.1902 37.0742C58.3022 37.0065 58.3985 36.9453 58.4792 36.8906L58.2917 38.6641C58.1902 38.7422 58.0795 38.8086 57.9597 38.8633C57.8425 38.918 57.7201 38.9622 57.5925 38.9961C57.4649 39.0299 57.336 39.0547 57.2058 39.0703C57.0756 39.0859 56.948 39.0938 56.823 39.0938C56.5652 39.0938 56.3295 39.0586 56.116 38.9883C55.9024 38.918 55.7084 38.8203 55.5339 38.6953C55.3621 38.5677 55.211 38.418 55.0808 38.2461C54.9506 38.0742 54.8425 37.8867 54.7566 37.6836C54.6707 37.4805 54.6056 37.2656 54.5613 37.0391C54.517 36.8125 54.4949 36.5833 54.4949 36.3516C54.4949 36.1094 54.517 35.8672 54.5613 35.625C54.6056 35.3828 54.672 35.1497 54.7605 34.9258C54.8516 34.7018 54.9649 34.4948 55.1003 34.3047C55.2384 34.112 55.3985 33.944 55.5808 33.8008C55.7631 33.6576 55.9688 33.5456 56.198 33.4648C56.4298 33.3841 56.685 33.3438 56.9636 33.3438C57.1954 33.3438 57.4063 33.3763 57.5964 33.4414C57.7891 33.5039 57.9597 33.5924 58.1082 33.707C58.2592 33.819 58.3894 33.9531 58.4988 34.1094C58.6108 34.2656 58.7019 34.4375 58.7722 34.625C58.8451 34.8099 58.8985 35.0065 58.9324 35.2148C58.9688 35.4206 58.9871 35.6302 58.9871 35.8438ZM57.4246 35.6406C57.4246 35.5677 57.4167 35.4935 57.4011 35.418C57.3855 35.3398 57.3595 35.2695 57.323 35.207C57.2891 35.1445 57.2436 35.0938 57.1863 35.0547C57.129 35.013 57.0574 34.9922 56.9714 34.9922C56.8673 34.9922 56.7748 35.0208 56.6941 35.0781C56.616 35.1328 56.5483 35.2031 56.491 35.2891C56.4337 35.3724 56.3868 35.4635 56.3503 35.5625C56.3139 35.6615 56.2865 35.7526 56.2683 35.8359L57.4246 35.7266V35.6406Z" fill="#6AB6EE"/>
</svg>
